<svg width="160" height="160" viewBox="0 0 160 160" xmlns="http://www.w3.org/2000/svg">
  <rect width="160" height="160" rx="16" fill="#ffffff"/>
  <line x1="80" y1="68" x2="80" y2="44" stroke="#3B82F6" stroke-width="1.2" opacity="0.5"/>
  <line x1="87" y1="72" x2="104" y2="63" stroke="#3B82F6" stroke-width="1.2" opacity="0.5"/>
  <line x1="87" y1="82" x2="104" y2="91" stroke="#6366F1" stroke-width="1.2" opacity="0.5"/>
  <line x1="80" y1="86" x2="80" y2="110" stroke="#6366F1" stroke-width="1.2" opacity="0.5"/>
  <line x1="73" y1="82" x2="56" y2="91" stroke="#6366F1" stroke-width="1.2" opacity="0.5"/>
  <line x1="73" y1="72" x2="56" y2="63" stroke="#3B82F6" stroke-width="1.2" opacity="0.5"/>
  <line x1="80" y1="40" x2="80" y2="28" stroke="#3B82F6" stroke-width="0.9" opacity="0.35"/>
  <line x1="112" y1="56" x2="122" y2="50" stroke="#3B82F6" stroke-width="0.9" opacity="0.35"/>
  <line x1="112" y1="98" x2="122" y2="104" stroke="#6366F1" stroke-width="0.9" opacity="0.35"/>
  <line x1="80" y1="114" x2="80" y2="126" stroke="#6366F1" stroke-width="0.9" opacity="0.35"/>
  <line x1="48" y1="98" x2="38" y2="104" stroke="#6366F1" stroke-width="0.9" opacity="0.35"/>
  <line x1="48" y1="56" x2="38" y2="50" stroke="#3B82F6" stroke-width="0.9" opacity="0.35"/>
  <circle cx="80" cy="27" r="3.5" fill="#93C5FD" opacity="0.8"/>
  <circle cx="123" cy="49" r="3.5" fill="#93C5FD" opacity="0.8"/>
  <circle cx="123" cy="105" r="3.5" fill="#A5B4FC" opacity="0.8"/>
  <circle cx="80" cy="127" r="3.5" fill="#A5B4FC" opacity="0.8"/>
  <circle cx="37" cy="105" r="3.5" fill="#A5B4FC" opacity="0.8"/>
  <circle cx="37" cy="49" r="3.5" fill="#93C5FD" opacity="0.8"/>
  <circle cx="80" cy="44" r="6" fill="#60A5FA"/>
  <circle cx="105" cy="58" r="6" fill="#60A5FA"/>
  <circle cx="105" cy="96" r="6" fill="#818CF8"/>
  <circle cx="80" cy="110" r="6" fill="#818CF8"/>
  <circle cx="55" cy="96" r="6" fill="#818CF8"/>
  <circle cx="55" cy="58" r="6" fill="#60A5FA"/>
  <circle cx="80" cy="77" r="10" fill="#3B82F6"/>
  <circle cx="80" cy="77" r="5" fill="#ffffff"/>
</svg>
